<svg width="35" height="35" viewBox="0 0 35 35" fill="none" xmlns="http://www.w3.org/2000/svg">
<path d="M28.6479 10.9926L24.0471 15.3126L28.4221 27.3439L25.1409 30.6251L18.6046 21.0576L15.2971 24.0626V27.3439L12.0159 30.6251L10.0755 24.9029L4.35962 22.9689L7.64087 19.6876H10.9221L14.2034 16.4064L4.35962 9.84386L7.64087 6.56261L19.6721 10.9376L24.0075 6.35218L23.9144 6.42991C24.219 6.12467 24.5807 5.88246 24.979 5.71711C25.3772 5.55177 25.8042 5.46655 26.2354 5.46631C26.6666 5.46607 27.0936 5.55083 27.492 5.71573C27.8904 5.88064 28.2525 6.12246 28.5574 6.42737C28.8623 6.73227 29.1041 7.09429 29.269 7.49271C29.4339 7.89114 29.5187 8.31816 29.5184 8.74936C29.5182 9.18057 29.433 9.60749 29.2676 10.0057C29.1023 10.404 28.8601 10.7657 28.5548 11.0703L28.6479 10.9926Z" stroke="white" stroke-width="2" stroke-linecap="round" stroke-linejoin="round"/>
</svg>
