<svg width="218" height="54" viewBox="0 0 218 54" fill="none" xmlns="http://www.w3.org/2000/svg">
<path d="M13.3012 53.9999C12.4014 53.7789 11.5072 53.5579 10.6074 53.3312C8.98279 52.9244 7.45425 52.1938 6.11093 51.1818C4.76761 50.1698 3.63638 48.8968 2.78319 47.437C1.16937 44.9875 0.215637 42.1524 0.0167542 39.2134C-0.0223694 38.4426 0.374435 37.2128 0.927719 36.9464C1.84987 36.493 3.06261 36.6517 4.15242 36.5497C4.15242 36.9748 4.34244 37.5868 4.15242 37.7795C3.03467 38.8337 3.00673 40.0465 3.35883 41.3954C4.11331 44.3142 5.28134 47.0006 7.42183 49.1996C9.14618 50.9362 11.4537 51.9483 13.8824 52.0333C16.9131 52.2304 19.9553 51.9299 22.8915 51.1435C31.2746 48.9842 38.5399 44.6032 45.5203 39.7178C51.6195 35.4672 57.6907 31.1769 63.734 26.8469C72.4692 20.6127 80.8411 13.8117 90.124 8.41619C96.579 4.65297 103.397 1.51883 110.825 0.368331C114.782 -0.249427 118.923 0.0339481 122.947 0.311656C126.563 0.561026 129.251 2.94138 131.648 5.46909C132.408 6.27387 132.766 7.51506 133.146 8.61455C133.895 10.9212 134.638 13.2506 134.035 15.7499C133.988 16.221 133.988 16.6957 134.035 17.1668C135.298 16.6681 136.41 16.2657 137.5 15.7953C143.351 13.2562 149.409 11.777 155.831 12.0037C160.425 12.1624 164.505 13.5283 167.802 16.8834C168.289 17.345 168.696 17.8874 169.004 18.4873C169.635 19.8589 170.68 20.1876 172.066 20.1196C181.451 19.6511 190.852 19.2033 200.267 18.7764C202.43 18.68 204.598 18.7764 206.761 18.7764L206.918 18.136C206.18 17.7279 205.464 17.2745 204.682 16.9118C201.234 15.2342 197.752 13.67 194.365 11.9017C193.717 11.5617 193.298 10.3942 193.158 9.54402C193.002 8.58055 193.773 8.4842 194.511 8.83559C196.202 9.53973 197.843 10.3616 199.423 11.2953C203.469 13.959 207.94 15.3702 212.663 16.0617C214.68 16.3564 216.575 16.9174 218 18.544V19.6265C214.736 21.1681 211.349 22.5056 208.248 24.3362C206.051 25.6284 204.213 27.561 202.29 29.2896C201.832 29.6977 201.67 30.4231 201.318 31.1429C200.767 31.0135 200.224 30.8526 199.691 30.6612C198.574 30.1794 198.227 29.2329 198.976 28.2638C199.859 27.1349 200.847 26.0949 201.927 25.158C203.307 23.9508 204.805 22.891 206.241 21.7575C206.297 21.7178 206.286 21.5988 206.286 21.5761C203.961 21.5761 201.625 21.4911 199.294 21.5761C190.481 21.9672 181.668 22.4149 172.86 22.857C172.24 22.9236 171.627 23.0412 171.027 23.2084C170.658 23.2547 170.312 23.4142 170.036 23.6654C169.759 23.9166 169.565 24.2476 169.479 24.6139C168.92 26.4105 166.684 27.8727 164.885 27.8104C164.621 27.7795 164.353 27.8246 164.113 27.9407C163.202 28.5528 162.437 28.4338 161.788 27.5554C161.14 26.6769 160.883 25.6001 161.61 24.5516C162.671 23.0044 164.259 22.1769 165.952 21.5365C167.645 20.896 167.852 20.1649 166.729 18.7027C164.896 16.2827 162.258 15.2625 159.464 14.8205C154.294 13.9252 148.983 14.4116 144.055 16.2317C140.758 17.4955 137.561 19.0088 134.309 20.386C133.817 20.5865 133.383 20.91 133.048 21.3262C132.713 21.7424 132.487 22.2378 132.392 22.7663C131.537 26.0308 130.631 29.2953 128.317 31.925C127.708 32.6164 127.462 33.6253 126.881 34.345C125.965 35.4785 124.88 36.4817 123.908 37.5755C122.762 38.8677 121.622 40.1712 120.555 41.5428C120.108 42.14 119.531 42.6239 118.869 42.9563C118.206 43.2887 117.477 43.4606 116.738 43.4584C115.139 43.4867 114.726 42.8916 114.949 41.2764C115.726 35.4842 118.593 30.8482 122.287 26.6372C124.463 24.0575 126.99 21.8056 129.793 19.9496C130.568 19.4274 131.13 18.6381 131.375 17.7279C132.108 14.635 131.913 11.3905 130.816 8.41052C129.262 4.27891 126.004 2.33496 121.941 2.07425C115.971 1.61826 109.973 2.45676 104.347 4.53395C92.0521 9.15297 81.7465 16.9174 71.2564 24.5176C61.3644 31.6926 51.2823 38.6183 41.1052 45.3853C34.6969 49.6369 27.4881 52.4931 19.935 53.7732C19.7701 53.8269 19.6124 53.9012 19.4656 53.9943L13.3012 53.9999ZM118.04 39.9049C122.96 35.7271 126.744 30.3423 129.033 24.2625C123.947 28.4678 119.862 33.3929 118.04 39.9049Z" fill="#E27394"/>
</svg>
