<svg width="20" height="20" viewBox="0 0 20 20" fill="none" xmlns="http://www.w3.org/2000/svg">
<path d="M7.49999 9.99984L9.16666 11.6665L12.9167 7.9165M6.11146 3.18208C6.78132 3.12863 7.41725 2.86522 7.92871 2.42935C9.12226 1.41222 10.8777 1.41222 12.0713 2.42935C12.5827 2.86522 13.2187 3.12863 13.8885 3.18208C15.4517 3.30683 16.693 4.54812 16.8177 6.11131C16.8712 6.78117 17.1346 7.4171 17.5705 7.92856C18.5876 9.12211 18.5876 10.8776 17.5705 12.0711C17.1346 12.5826 16.8712 13.2185 16.8177 13.8884C16.693 15.4516 15.4517 16.6928 13.8885 16.8176C13.2187 16.871 12.5827 17.1345 12.0713 17.5703C10.8777 18.5875 9.12226 18.5875 7.92871 17.5703C7.41725 17.1345 6.78132 16.871 6.11146 16.8176C4.54828 16.6928 3.30698 15.4516 3.18224 13.8884C3.12878 13.2185 2.86537 12.5826 2.42951 12.0711C1.41237 10.8776 1.41237 9.12211 2.42951 7.92856C2.86537 7.4171 3.12878 6.78117 3.18224 6.11131C3.30698 4.54812 4.54828 3.30683 6.11146 3.18208Z" stroke="#232323" stroke-linecap="round" stroke-linejoin="round"/>
</svg>
