<svg width="34" height="34" viewBox="0 0 34 34" fill="none" xmlns="http://www.w3.org/2000/svg">
<path d="M14.1667 20.591C15.9142 19.581 18.0857 19.581 19.8332 20.591M2.83334 21.2502L3.82712 11.3124C3.8648 10.9356 3.88364 10.7472 3.91253 10.5856C4.25316 8.6801 5.83838 7.2455 7.76833 7.09616C7.93202 7.0835 8.12135 7.0835 8.50001 7.0835M31.1667 21.2502L30.1729 11.3124C30.1352 10.9356 30.1164 10.7472 30.0875 10.5856C29.7469 8.6801 28.1616 7.2455 26.2317 7.09616C26.068 7.0835 25.8787 7.0835 25.5 7.0835M12.507 17.2432C14.7199 19.4562 14.7199 23.0441 12.507 25.2571C10.294 27.4701 6.70605 27.4701 4.49307 25.2571C2.2801 23.0441 2.2801 19.4562 4.49307 17.2432C6.70603 15.0303 10.294 15.0303 12.507 17.2432ZM29.507 17.2432C31.7199 19.4562 31.7199 23.0441 29.507 25.2571C27.294 27.4701 23.706 27.4701 21.4931 25.2571C19.2801 23.0441 19.2801 19.4562 21.4931 17.2432C23.706 15.0303 27.294 15.0303 29.507 17.2432Z" stroke="#E27394" stroke-width="2" stroke-linecap="round" stroke-linejoin="round"/>
</svg>
