<svg width="218" height="54" viewBox="0 0 218 54" fill="none" xmlns="http://www.w3.org/2000/svg">
<path d="M13.3012 5.34058e-05C12.4014 0.221088 11.5072 0.44212 10.6074 0.668819C8.98279 1.07558 7.45425 1.80623 6.11093 2.8182C4.76761 3.83015 3.63638 5.10317 2.78319 6.56303C1.16937 9.01252 0.215637 11.8476 0.0167542 14.7866C-0.0223694 15.5574 0.374435 16.7872 0.927719 17.0536C1.84987 17.507 3.06261 17.3483 4.15242 17.4503C4.15242 17.0252 4.34244 16.4132 4.15242 16.2205C3.03467 15.1663 3.00673 13.9535 3.35883 12.6046C4.11331 9.68582 5.28134 6.99943 7.42183 4.80043C9.14618 3.06384 11.4537 2.05173 13.8824 1.96668C16.9131 1.76962 19.9553 2.07009 22.8915 2.85648C31.2746 5.0158 38.5399 9.39678 45.5203 14.2822C51.6195 18.5328 57.6907 22.8231 63.734 27.1531C72.4692 33.3873 80.8411 40.1883 90.124 45.5838C96.579 49.347 103.397 52.4812 110.825 53.6317C114.782 54.2494 118.923 53.9661 122.947 53.6883C126.563 53.439 129.251 51.0586 131.648 48.5309C132.408 47.7261 132.766 46.4849 133.146 45.3854C133.895 43.0788 134.638 40.7494 134.035 38.2501C133.988 37.779 133.988 37.3043 134.035 36.8332C135.298 37.3319 136.41 37.7343 137.5 38.2047C143.351 40.7438 149.409 42.223 155.831 41.9963C160.425 41.8376 164.505 40.4717 167.802 37.1166C168.289 36.655 168.696 36.1126 169.004 35.5127C169.635 34.1411 170.68 33.8124 172.066 33.8804C181.451 34.3489 190.852 34.7967 200.267 35.2236C202.43 35.32 204.598 35.2236 206.761 35.2236L206.918 35.864C206.18 36.2721 205.464 36.7255 204.682 37.0882C201.234 38.7658 197.752 40.33 194.365 42.0983C193.717 42.4383 193.298 43.6058 193.158 44.456C193.002 45.4195 193.773 45.5158 194.511 45.1644C196.202 44.4603 197.843 43.6384 199.423 42.7047C203.469 40.041 207.94 38.6298 212.663 37.9383C214.68 37.6436 216.575 37.0826 218 35.456V34.3735C214.736 32.8319 211.349 31.4944 208.248 29.6638C206.051 28.3716 204.213 26.439 202.29 24.7104C201.832 24.3023 201.67 23.5769 201.318 22.8571C200.767 22.9865 200.224 23.1474 199.691 23.3388C198.574 23.8206 198.227 24.7671 198.976 25.7362C199.859 26.8651 200.847 27.9051 201.927 28.842C203.307 30.0492 204.805 31.109 206.241 32.2425C206.297 32.2822 206.286 32.4012 206.286 32.4239C203.961 32.4239 201.625 32.5089 199.294 32.4239C190.481 32.0328 181.668 31.5851 172.86 31.143C172.24 31.0764 171.627 30.9588 171.027 30.7916C170.658 30.7453 170.312 30.5858 170.036 30.3346C169.759 30.0834 169.565 29.7524 169.479 29.3861C168.92 27.5895 166.684 26.1273 164.885 26.1896C164.621 26.2205 164.353 26.1754 164.113 26.0593C163.202 25.4472 162.437 25.5662 161.788 26.4446C161.14 27.3231 160.883 28.3999 161.61 29.4484C162.671 30.9956 164.259 31.8231 165.952 32.4635C167.645 33.104 167.852 33.8351 166.729 35.2973C164.896 37.7173 162.258 38.7375 159.464 39.1795C154.294 40.0748 148.983 39.5884 144.055 37.7683C140.758 36.5045 137.561 34.9912 134.309 33.614C133.817 33.4135 133.383 33.09 133.048 32.6738C132.713 32.2576 132.487 31.7622 132.392 31.2337C131.537 27.9692 130.631 24.7047 128.317 22.075C127.708 21.3836 127.462 20.3747 126.881 19.655C125.965 18.5215 124.88 17.5183 123.908 16.4245C122.762 15.1323 121.622 13.8288 120.555 12.4572C120.108 11.86 119.531 11.3761 118.869 11.0437C118.206 10.7113 117.477 10.5394 116.738 10.5416C115.139 10.5133 114.726 11.1084 114.949 12.7236C115.726 18.5158 118.593 23.1518 122.287 27.3628C124.463 29.9425 126.99 32.1944 129.793 34.0504C130.568 34.5726 131.13 35.3619 131.375 36.2721C132.108 39.365 131.913 42.6095 130.816 45.5895C129.262 49.7211 126.004 51.665 121.941 51.9257C115.971 52.3817 109.973 51.5432 104.347 49.4661C92.0521 44.847 81.7465 37.0826 71.2564 29.4824C61.3644 22.3074 51.2823 15.3817 41.1052 8.61466C34.6969 4.36313 27.4881 1.5069 19.935 0.226757C19.7701 0.173088 19.6124 0.0988388 19.4656 0.00572205L13.3012 5.34058e-05ZM118.04 14.0951C122.96 18.2729 126.744 23.6577 129.033 29.7375C123.947 25.5322 119.862 20.6071 118.04 14.0951Z" fill="#E27394"/>
</svg>
