<svg width="35" height="35" viewBox="0 0 35 35" fill="none" xmlns="http://www.w3.org/2000/svg">
<path d="M26.7808 14.4062L17.5 23.687L11.3129 17.4998L20.5936 8.21901C24.1079 4.70477 27.6221 4.73905 29.1208 4.96266C29.3516 4.99706 29.5652 5.10467 29.7302 5.26965C29.8952 5.43462 30.0028 5.64823 30.0372 5.87899C30.2608 7.37772 30.2951 10.892 26.7808 14.4062Z" stroke="white" stroke-width="2" stroke-linecap="round" stroke-linejoin="round"/>
<path d="M25.234 15.9531V24.7809C25.234 24.9245 25.2057 25.0667 25.1507 25.1994C25.0958 25.3321 25.0152 25.4527 24.9136 25.5543L20.4919 29.976C20.3519 30.116 20.1766 30.2153 19.9845 30.2635C19.7925 30.3116 19.591 30.3068 19.4016 30.2494C19.2121 30.192 19.0417 30.0843 18.9087 29.9377C18.7756 29.7912 18.6848 29.6112 18.646 29.4171L17.5 23.6871" stroke="white" stroke-width="2" stroke-linecap="round" stroke-linejoin="round"/>
<path d="M19.0468 9.76611H10.2191C10.0755 9.76611 9.93323 9.7944 9.80053 9.84937C9.66783 9.90434 9.54725 9.9849 9.44569 10.0865L5.02397 14.5082C4.88398 14.6482 4.78461 14.8235 4.73646 15.0156C4.68831 15.2076 4.69318 15.4091 4.75054 15.5985C4.80791 15.788 4.91563 15.9584 5.06221 16.0914C5.20879 16.2245 5.38874 16.3153 5.58286 16.3541L11.3128 17.5001" stroke="white" stroke-width="2" stroke-linecap="round" stroke-linejoin="round"/>
<path d="M12.3813 26.3021C10.3226 29.8743 5.12561 29.8743 5.12561 29.8743C5.12561 29.8743 5.12561 24.6774 8.69783 22.6187" stroke="white" stroke-width="2" stroke-linecap="round" stroke-linejoin="round"/>
</svg>
