<svg width="30" height="30" viewBox="0 0 30 30" fill="none" xmlns="http://www.w3.org/2000/svg">
<g clip-path="url(#clip0_156_3988)">
<path d="M19.166 21.6667C19.166 21.8877 19.0782 22.0997 18.9219 22.2559C18.7657 22.4122 18.5537 22.5 18.3327 22.5H6.66602C6.48268 22.5 6.30768 22.6667 6.15768 22.775L3.33268 25V11.6667C3.33268 11.4457 3.42048 11.2337 3.57676 11.0774C3.73304 10.9212 3.945 10.8334 4.16602 10.8334H7.38268V9.16669H4.16602C3.50297 9.16669 2.86709 9.43008 2.39825 9.89892C1.92941 10.3678 1.66602 11.0036 1.66602 11.6667V26.6667C1.66726 26.8215 1.71157 26.9728 1.794 27.1038C1.87642 27.2348 1.9937 27.3403 2.13268 27.4084C2.26658 27.4692 2.41421 27.4936 2.56058 27.479C2.70694 27.4643 2.84683 27.4112 2.96602 27.325L7.25768 24.1667H18.4577C18.7735 24.176 19.0879 24.1204 19.3814 24.0033C19.6749 23.8862 19.9412 23.7101 20.1638 23.4859C20.3865 23.2617 20.5607 22.9941 20.6758 22.6999C20.7908 22.4056 20.8442 22.0908 20.8327 21.775V20.8334H19.166V21.6667Z" fill="white"/>
<path d="M25.8327 3.33331H11.666C11.003 3.33331 10.3671 3.59671 9.89825 4.06555C9.42941 4.53439 9.16602 5.17027 9.16602 5.83331V15.8333C9.16602 16.4964 9.42941 17.1322 9.89825 17.6011C10.3671 18.0699 11.003 18.3333 11.666 18.3333H22.9577L26.941 21.425C27.0594 21.5125 27.1989 21.5671 27.3453 21.5832C27.4917 21.5993 27.6397 21.5764 27.7744 21.5166C27.9162 21.4491 28.036 21.3429 28.12 21.2102C28.2041 21.0775 28.2489 20.9237 28.2494 20.7666V5.83331C28.2497 5.18446 27.9978 4.56089 27.5468 4.09437C27.0959 3.62785 26.4812 3.35494 25.8327 3.33331ZM26.666 19.1166L23.7493 16.8416C23.6039 16.7288 23.4251 16.6672 23.241 16.6666H11.666C11.445 16.6666 11.233 16.5788 11.0768 16.4226C10.9205 16.2663 10.8327 16.0543 10.8327 15.8333V5.83331C10.8327 5.6123 10.9205 5.40034 11.0768 5.24406C11.233 5.08778 11.445 4.99998 11.666 4.99998H25.8327C26.0554 5.0202 26.2631 5.12116 26.4166 5.28386C26.5701 5.44656 26.6588 5.65976 26.666 5.88331V19.1166Z" fill="white"/>
</g>
<defs>
<clipPath id="clip0_156_3988">
<rect width="30" height="30" fill="white"/>
</clipPath>
</defs>
</svg>
