<svg width="34" height="34" viewBox="0 0 34 34" fill="none" xmlns="http://www.w3.org/2000/svg">
<path d="M9.91668 31.1668V15.5835M2.83334 18.4168V28.3335C2.83334 29.8983 4.10187 31.1668 5.66668 31.1668H24.6872C26.7849 31.1668 28.5688 29.6364 28.8878 27.5631L30.4134 17.6464C30.8095 15.0719 28.8176 12.7502 26.2128 12.7502H21.25C20.4676 12.7502 19.8333 12.1159 19.8333 11.3335V6.32677C19.8333 4.39749 18.2694 2.8335 16.3401 2.8335C15.8799 2.8335 15.4629 3.1045 15.276 3.525L10.2906 14.7422C10.0632 15.2538 9.55587 15.5835 8.99602 15.5835H5.66668C4.10187 15.5835 2.83334 16.852 2.83334 18.4168Z" stroke="#E27394" stroke-width="2" stroke-linecap="round" stroke-linejoin="round"/>
</svg>
