<svg width="34" height="34" viewBox="0 0 34 34" fill="none" xmlns="http://www.w3.org/2000/svg">
<path d="M31.1667 29.75V26.9167C31.1667 24.2762 29.3607 22.0576 26.9167 21.4285M21.9583 4.66191C24.0351 5.50254 25.5 7.53852 25.5 9.91667C25.5 12.2948 24.0351 14.3308 21.9583 15.1714M24.0833 29.75C24.0833 27.1097 24.0833 25.7895 23.652 24.7481C23.0769 23.3596 21.9737 22.2565 20.5852 21.6813C19.5438 21.25 18.2237 21.25 15.5833 21.25H11.3333C8.69301 21.25 7.37284 21.25 6.33147 21.6813C4.94298 22.2565 3.83983 23.3596 3.26469 24.7481C2.83334 25.7895 2.83334 27.1097 2.83334 29.75M19.125 9.91667C19.125 13.0463 16.588 15.5833 13.4583 15.5833C10.3287 15.5833 7.79168 13.0463 7.79168 9.91667C7.79168 6.78705 10.3287 4.25 13.4583 4.25C16.588 4.25 19.125 6.78705 19.125 9.91667Z" stroke="#E27394" stroke-width="2" stroke-linecap="round" stroke-linejoin="round"/>
</svg>
